<?xml version="1.0" encoding="utf-8"?>
<!-- Generator: Adobe Illustrator 19.2.1, SVG Export Plug-In . SVG Version: 6.00 Build 0)  -->
<svg version="1.1" id="Capa_1" xmlns="http://www.w3.org/2000/svg" xmlns:xlink="http://www.w3.org/1999/xlink" x="0px" y="0px"
	 viewBox="0 0 112.5 63" style="enable-background:new 0 0 112.5 63;" xml:space="preserve">
<style type="text/css">
	.st0{fill:#FFFFFF;}
	.st1{fill:#95D78A;}
</style>
<g>
	<polygon points="112.8,0 0.6,59.4 0.3,26.2 49.9,0 	"/>
	<g>
		<path class="st0" d="M19.7,30.3l-1.8-1.5l-0.1,0l1.2,1.8l4.2,7.8L22,39.2l-6.6-12.6l0.8-0.4l8.8,5.6l1.7,1.5l0.1,0l-1.2-1.8
			l-4.1-7.8l1.3-0.7l6.6,12.6L28.5,36L19.7,30.3z"/>
		<path class="st0" d="M30.6,18.8l1.3-0.7l4.4,8.3c0.8,1.5,1.1,2.7,0.8,3.7c-0.2,1-0.9,1.7-2,2.3c-1.2,0.7-2.3,0.8-3.2,0.5
			s-1.7-1.2-2.4-2.5l-4.5-8.6l1.3-0.7l4.2,7.9c0.3,0.6,0.7,1.2,1,1.5c0.3,0.4,0.6,0.7,1,0.8s0.7,0.2,1,0.2c0.3,0,0.7-0.2,1.1-0.4
			c0.8-0.4,1.2-1,1.2-1.7c0-0.7-0.3-1.7-0.9-2.9L30.6,18.8z"/>
		<path class="st0" d="M34.2,16.9l5.5-2.9l0.6,1.2l-4.2,2.2l2.2,4.2l3.8-2l0.6,1.2l-3.8,2l2.4,4.5l4.3-2.3l0.6,1.2l-5.6,3L34.2,16.9
			z"/>
		<path class="st0" d="M48.9,19.9l1.3,1.7l0,0l-0.7-2.1l-2.2-9.6l1.4-0.7l2.9,14.6L51,24.1L40.6,13.5l1.5-0.8L48.9,19.9z"/>
		<path class="st0" d="M52.4,15.1c-1.1-2.1-1.6-3.9-1.5-5.3c0.1-1.4,0.8-2.5,2.2-3.3C53.9,6.2,54.6,6,55.2,6c0.7,0,1.3,0.2,1.9,0.6
			C57.8,7,58.4,7.6,59,8.3c0.6,0.7,1.1,1.6,1.6,2.5c1.1,2.1,1.6,3.9,1.5,5.3c-0.1,1.4-0.8,2.5-2.2,3.3c-0.7,0.4-1.4,0.6-2.1,0.5
			c-0.7,0-1.3-0.2-2-0.6c-0.6-0.4-1.2-0.9-1.8-1.6C53.5,17,52.9,16.1,52.4,15.1z M53.8,14.4c0.4,0.7,0.8,1.3,1.2,1.9s0.9,1,1.3,1.4
			c0.5,0.4,0.9,0.6,1.4,0.7c0.5,0.1,1,0,1.5-0.2c0.9-0.5,1.3-1.2,1.3-2.3c0-1.1-0.4-2.5-1.4-4.3c-0.4-0.7-0.8-1.3-1.2-1.9
			c-0.4-0.6-0.9-1-1.3-1.4c-0.5-0.4-0.9-0.6-1.4-0.7c-0.5-0.1-1,0-1.5,0.2c-0.9,0.5-1.3,1.2-1.3,2.3C52.4,11.2,52.9,12.7,53.8,14.4z
			"/>
	</g>
	<polygon class="st1" points="6,63 0.6,59.4 6,56.5 	"/>
</g>
</svg>
